<?xml version="1.0" encoding="utf-8"?>
<!-- Generator: Adobe Illustrator 23.0.3, SVG Export Plug-In . SVG Version: 6.00 Build 0)  -->
<svg version="1.1" id="Layer_1" xmlns="http://www.w3.org/2000/svg" xmlns:xlink="http://www.w3.org/1999/xlink" x="0px" y="0px"
	 width="288px" height="432px" viewBox="0 0 288 432" style="enable-background:new 0 0 288 432;" xml:space="preserve">
<g>
	<path d="M116.1,389.7c-32-4.2-49.5-9.2-58.3-16.9c-5.9-5.1-11.7-16-15.7-36.6c-5.4-28.2-7.9-39.8-7.3-103.1c0.6-64,1.4-82.6,4.5-99
		c5.2-27.2,6.8-31.9,12.9-38l3.7-3.7l-2.3-1.2C50.6,89.7,48,86.4,48,84c0-2.3,1.7-5.6,3.9-7.6l1.7-1.5l-1.9-2
		c-1-1.1-2.1-2.8-2.4-3.8c-0.7-2.4,0.8-6.6,3.1-8.7l1.9-1.8l-1.8-2.4c-2.6-3.5-3-5.5-1.8-8.5c3.9-9.2,28.2-16.9,63.5-20.2
		c13-1.2,49-1.2,61.4,0c44.3,4.3,68.5,13.8,64.6,25.4c-0.5,1.4-1.5,3.2-2.4,3.9c-1.5,1.3-1.5,1.4,0.7,4.2c1.2,1.6,2.5,3.6,2.8,4.6
		c0.7,2.3-0.8,6.6-2.8,8.4c-1.6,1.4-1.5,1.4,1,4c2.1,2.2,2.6,3.2,2.6,6.2c0,3-0.4,3.9-2.5,5.7c-1.4,1.2-3.1,2.5-3.9,3
		c-1.3,0.7-1.3,1,0.6,3.4c1.1,1.5,2.8,5.1,3.7,8.1c2.7,8.8,6.3,28.2,7.2,37.8c2.2,25.5,4,80.5,4.1,126.2c0.1,38.5-0.4,44.6-4.6,63.2
		c-3.5,15.5-9.1,28.4-15.5,35.6c-8.5,9.6-23.1,16.8-42,20.7c-7.1,1.5-10.8,1.7-39.3,1.9C132.7,389.9,117.4,389.9,116.1,389.7z
		 M140.7,383.4c-2.9-0.1-7.7-0.1-10.6,0c-2.9,0.2-0.5,0.3,5.3,0.3C141.3,383.7,143.7,383.5,140.7,383.4z M195.2,374.2
		c6.3-1.3,15.9-4.8,21.7-8c3.2-1.7,4.6-3.2,7.6-8.1c7-11.6,11-28.2,12.5-53.1c1.4-22.6,2.1-72.3,1.5-111.6
		c-0.6-38-0.7-39.7-4.3-60.3c-1.2-7-1.3-8.1-0.3-8.8c0.6-0.4,1.8-0.5,2.5-0.3c0.8,0.3,1.4,0,1.4-0.6c0-2-4.5-20.2-5.1-20.7
		c-0.3-0.3-0.4,0.5-0.2,1.8c0.6,3.5-1.2,7.2-3.9,7.7c-2.8,0.6-6.9-0.8-16.7-5.7c-4.2-2.1-8.5-4.2-9.7-4.7c-1.6-0.6-2.2-1.4-2.2-2.8
		c0-3.5,4-4.5,16.3-4.1c8.5,0.2,10.4,0.1,10.1-0.8c-0.7-1.8,1.1-3.9,5.1-6.1c5-2.7,5.3-5,1.2-7.4c-5.2-3-5.4-6.1-0.7-9.6
		c1.5-1.1,2.7-2.7,2.7-3.5c0-0.8-1.6-2.7-3.5-4.3c-1.9-1.6-3.5-3.5-3.5-4.3c0-0.8,1.4-2.6,3.1-4.1c3.4-2.9,3.9-4.4,1.9-6.4
		c-1.9-1.8-2.5-1.5-2.1,1.1c0.3,2-0.2,2.9-2.8,5.3c-3.9,3.7-11.4,6.5-24.1,9c-13.4,2.7-19.6,3.3-40.4,4.4c-19.9,1-46,0.9-63.3-2.1
		c-16.9-2.9-35.4-8.5-38.4-13.1c-0.7-1.1-1.4-2.5-1.9-3.7C59.2,47,57.9,47,57,49.6c-0.4,1.2,0.3,2.3,2.7,4.5
		c1.8,1.6,3.2,3.5,3.2,4.3c0,1.4-4.1,5.7-5.4,5.7c-0.4,0-1.6,1.7-1.6,2.7c0,1.2,1.1,2.7,3.1,4.3c1.7,1.4,3.1,3.1,3.1,3.8
		s-1.6,2.7-3.5,4.5c-1.9,1.8-2.7,3.2-2.7,3.7c0,0.5,0.6,2,2.3,2.9c3.7,1.9,4.3,1.9,3.7,0.5c-0.2-0.6,0-1.7,0.6-2.5
		c1-1.3,1.5-1.3,12,0.7c43.8,8.4,108.5,7.7,145.4-1.5c5.1-1.3,7.1-0.6,6.7,2.3c-0.4,3-18.4,7.7-40,10.3c-14.1,1.7-57.2,2.4-73,1.2
		c-15.1-1.2-30.8-3.6-41.4-6.3l-8.5-2.2l0.5,1.8c0.4,1.5-0.6,3-5.4,8.1c-6.4,6.8-7.8,9.9-9.8,21.4c-0.5,3-1.8,9.3-2.8,14
		c-1.3,5.7-2,12.2-2.3,19.5c-0.3,8-0.2,9.7,0.3,6.2c0.9-6,5-22.9,6.9-28.4c1.6-4.6,3.5-6.5,5-5c0.7,0.7,0.3,2.9-1.5,9.3
		c-5.4,18.9-5.9,22.8-8.1,62.6c-1.3,23.7,0.1,93.1-0.9,106.8c-1.2,16.6,7,41.1,11.3,49.5c2.5,4.9,5.7,8.4,9.4,10.4l-1.7-5.4l0,0
		c-0.5-0.1,1.1-1.4-1.9-3.4c-4.7-3-9.8-20.2-12.3-35.5c-1.2-7.5-2.5-12.4-1.7-22.8c0.8-10.2,2.5-23.7,3.8-25.8
		c0.7-1.2,3.3-0.7,3.8,0.7c0.3,0.8,0.9,6.3,1.3,12.3c1.8,26.7,3.5,35,9.3,46.6l4.1,5.2l5.5,4.9c4,3.5,5.9,3.2,5.9,4.7
		c0,1.4-0.7,2-3.5,2.9c-5.8,1.8-7.9,2.6-7.6,2.9c0.2,0.2,2.9-0.4,6.1-1.3c24.2-6.7,77.1-8.1,112.3-3.1c18.2,2.6,26.8,5.6,29.1,10.1
		c2.8,5.6-8.3,11.9-28.5,16c-2.7,0.5-3.8,1-2.6,1.1C188.7,375.3,192.1,374.9,195.2,374.2z M127.3,85.3c-30.2-1.5-65.9-9.8-65.9-15.4
		c0-0.3,0.5-1.3,1.1-2.1c1-1.3,1.3-1.4,4.9-0.2c2.1,0.7,7.8,2.1,12.5,3.2c40.4,9,93.4,8.6,130.7-0.9c13.6-3.5,16.4-3.7,16.8-1.3
		c0.3,2.4-3,4.3-14.4,8C192.4,83.4,158.2,86.8,127.3,85.3z M181.8,369.6c3.2-0.7,8-2.2,10.6-3.5l4.8-2.3l-2.8-1.2
		c-11.1-4.8-53.7-8.6-77.2-6.9c-15.1,1.1-24.3,3.5-19,5.1c3.7,1.1,22.1,2.2,30.5,1.9c10.6-0.4,11.4-0.3,11.4,1.8c0,1-0.9,1.7-3,2.3
		c-6.4,1.8-36.1,0.4-41.7-1.9c-3.5-1.4-4.8-4.3-3.1-6.9c1.7-2.6,5.1-4.2,11.4-5.5l5.2-1.1l-5.1,0.4c-14.1,1.1-30,4.5-33.4,7
		c-1.4,1-1.4,1.2-0.3,2.3c16.6,9,41.7,8.7,60.1,10C140.2,371.7,176.1,370.8,181.8,369.6z M209.1,363.6c2.8-1.3,5-2.8,5-3.4
		c0-2.6-13.4-6.2-30.7-8.2c-9.1-1.1-34.8-2.4-44.9-2.2c-7.3,0.1-6.6,0.2,7.1,1.1c25.1,1.6,40.3,3.9,49.8,7.4c5,1.9,6.3,3.1,6.3,5.9
		C201.8,366.6,203,366.6,209.1,363.6z M67,349.9c1-1.1,2.9-2.5,4.2-3l2.3-1l-2.4-1.2c-8.5-4.4-15.3-22.9-17.8-48.5
		c-0.1-1.3-0.5,1.5-0.8,6.2c-0.7,9.6,0.6,20.4,3.5,30.3c1.8,6,7.7,19.2,8.6,19.2C64.8,352,65.9,351.1,67,349.9z M227.5,105.6
		c0-1.3-0.8-3.2-1.8-4.3c-1.7-1.9-2.1-2-8.9-1.8l-7.1,0.2l4.6,2.6c4.2,2.4,11,5.4,12.5,5.5C227.3,107.9,227.5,106.9,227.5,105.6z
		 M184.2,60c13.5-1.9,22.6-4.1,28.2-6.7c6.2-2.9,6.2-4.2,0.2-7.2c-21.7-10.7-97.3-12.2-130.8-2.6c-4.9,1.4-9.9,4-10.4,5.4
		c-1.5,4,14.7,9,36.1,11.3c4.3,0.5,9.1,1,10.6,1.1c1.5,0.2,15,0.2,29.9,0.1C168,61.4,177.6,61,184.2,60z M226.3,49.3l-0.6-1.8
		c-0.4-1.2-3-1-3.8-0.1c-0.7,0.7-0.1,2,0.1,2.9c0.2,0.9-0.1,2.3,0.8,2.6C223.4,52.8,225,51.3,226.3,49.3z"/>
</g>
</svg>
